<?xml version="1.0" encoding="utf-8" standalone="no"?>
<!DOCTYPE svg PUBLIC "-//W3C//DTD SVG 1.1//EN"
  "http://www.w3.org/Graphics/SVG/1.1/DTD/svg11.dtd">
<!-- Created with matplotlib (https://matplotlib.org/) -->
<svg height="345.6pt" version="1.1" viewBox="0 0 460.8 345.6" width="460.8pt" xmlns="http://www.w3.org/2000/svg" xmlns:xlink="http://www.w3.org/1999/xlink">
 <defs>
  <style type="text/css">
*{stroke-linecap:butt;stroke-linejoin:round;}
  </style>
 </defs>
 <g id="figure_1">
  <g id="patch_1">
   <path d="M 0 345.6 
L 460.8 345.6 
L 460.8 0 
L 0 0 
z
" style="fill:#ffffff;"/>
  </g>
  <g id="axes_1">
   <g id="patch_2">
    <path d="M 57.6 162.432 
L 414.72 162.432 
L 414.72 41.472 
L 57.6 41.472 
z
" style="fill:#ffffff;"/>
   </g>
   <g id="matplotlib.axis_1">
    <g id="xtick_1">
     <g id="line2d_1">
      <defs>
       <path d="M 0 0 
L 0 3.5 
" id="m75cfcffd51" style="stroke:#000000;stroke-width:0.8;"/>
      </defs>
      <g>
       <use style="stroke:#000000;stroke-width:0.8;" x="57.6" xlink:href="#m75cfcffd51" y="162.432"/>
      </g>
     </g>
     <g id="text_1">
      <!-- 0 -->
      <defs>
       <path d="M 47.59375 33 
Q 47.59375 26.296875 46.296875 20.34375 
Q 45 14.40625 42.453125 9.40625 
Q 39.90625 4.40625 35.40625 1.5 
Q 30.90625 -1.40625 25 -1.40625 
Q 18.90625 -1.40625 14.296875 1.6875 
Q 9.703125 4.796875 7.203125 10 
Q 4.703125 15.203125 3.546875 21.09375 
Q 2.40625 27 2.40625 33.59375 
Q 2.40625 42.90625 4.703125 50.34375 
Q 7 57.796875 12.34375 62.6875 
Q 17.703125 67.59375 25.40625 67.59375 
Q 35.203125 67.59375 41.390625 58 
Q 47.59375 48.40625 47.59375 33 
z
M 38 32.5 
Q 38 48.296875 34.640625 56.640625 
Q 31.296875 65 24.796875 65 
Q 18.59375 65 15.296875 56.59375 
Q 12 48.203125 12 32.90625 
Q 12 17.5 15.296875 9.34375 
Q 18.59375 1.203125 25 1.203125 
Q 31.296875 1.203125 34.640625 9.34375 
Q 38 17.5 38 32.5 
z
" id="STIXGeneral-Regular-48"/>
      </defs>
      <g transform="translate(55.1 176.261687)scale(0.1 -0.1)">
       <use xlink:href="#STIXGeneral-Regular-48"/>
      </g>
     </g>
    </g>
    <g id="xtick_2">
     <g id="line2d_2">
      <g>
       <use style="stroke:#000000;stroke-width:0.8;" x="129.024" xlink:href="#m75cfcffd51" y="162.432"/>
      </g>
     </g>
     <g id="text_2">
      <!-- 50 -->
      <defs>
       <path d="M 43.796875 68.09375 
L 40.203125 59.59375 
Q 39.59375 58.296875 37.5 58.296875 
L 18.09375 58.296875 
L 14.09375 49.796875 
Q 25.09375 47.703125 30 45.25 
Q 34.90625 42.796875 39.09375 37 
Q 42.59375 32.203125 42.59375 24.296875 
Q 42.59375 17.09375 40.25 12.1875 
Q 37.90625 7.296875 32.796875 3.5 
Q 26 -1.40625 15.796875 -1.40625 
Q 10.09375 -1.40625 6.59375 0.296875 
Q 3.09375 2 3.09375 4.796875 
Q 3.09375 8.59375 7.59375 8.59375 
Q 11.203125 8.59375 15 5.5 
Q 18.90625 2.296875 22.09375 2.296875 
Q 27.296875 2.296875 31.4375 7.5 
Q 35.59375 12.703125 35.59375 19.203125 
Q 35.59375 28.796875 28.90625 34.203125 
Q 20.203125 41.203125 7.59375 41.203125 
Q 6.40625 41.203125 6.40625 42 
L 6.5 42.5 
L 17.40625 66.203125 
L 38.09375 66.203125 
Q 39.796875 66.203125 40.75 66.703125 
Q 41.703125 67.203125 42.90625 68.796875 
z
" id="STIXGeneral-Regular-53"/>
      </defs>
      <g transform="translate(124.024 176.261687)scale(0.1 -0.1)">
       <use xlink:href="#STIXGeneral-Regular-53"/>
       <use x="49.999985" xlink:href="#STIXGeneral-Regular-48"/>
      </g>
     </g>
    </g>
    <g id="xtick_3">
     <g id="line2d_3">
      <g>
       <use style="stroke:#000000;stroke-width:0.8;" x="200.448" xlink:href="#m75cfcffd51" y="162.432"/>
      </g>
     </g>
     <g id="text_3">
      <!-- 100 -->
      <defs>
       <path d="M 39.40625 0 
L 11.796875 0 
L 11.796875 1.5 
Q 17.296875 1.796875 19.296875 3.546875 
Q 21.296875 5.296875 21.296875 9.5 
L 21.296875 54.40625 
Q 21.296875 59.296875 18.296875 59.296875 
Q 16.90625 59.296875 13.796875 58.09375 
L 11.09375 57.09375 
L 11.09375 58.5 
L 29 67.59375 
L 29.90625 67.296875 
L 29.90625 7.59375 
Q 29.90625 4.296875 31.90625 2.890625 
Q 33.90625 1.5 39.40625 1.5 
z
" id="STIXGeneral-Regular-49"/>
      </defs>
      <g transform="translate(192.948 176.261687)scale(0.1 -0.1)">
       <use xlink:href="#STIXGeneral-Regular-49"/>
       <use x="49.999985" xlink:href="#STIXGeneral-Regular-48"/>
       <use x="99.999969" xlink:href="#STIXGeneral-Regular-48"/>
      </g>
     </g>
    </g>
    <g id="xtick_4">
     <g id="line2d_4">
      <g>
       <use style="stroke:#000000;stroke-width:0.8;" x="271.872" xlink:href="#m75cfcffd51" y="162.432"/>
      </g>
     </g>
     <g id="text_4">
      <!-- 150 -->
      <g transform="translate(264.372 176.261687)scale(0.1 -0.1)">
       <use xlink:href="#STIXGeneral-Regular-49"/>
       <use x="49.999985" xlink:href="#STIXGeneral-Regular-53"/>
       <use x="99.999969" xlink:href="#STIXGeneral-Regular-48"/>
      </g>
     </g>
    </g>
    <g id="xtick_5">
     <g id="line2d_5">
      <g>
       <use style="stroke:#000000;stroke-width:0.8;" x="343.296" xlink:href="#m75cfcffd51" y="162.432"/>
      </g>
     </g>
     <g id="text_5">
      <!-- 200 -->
      <defs>
       <path d="M 47.40625 13.703125 
L 42 0 
L 2.90625 0 
L 2.90625 1.203125 
L 20.703125 20.09375 
Q 27.703125 27.40625 30.703125 33.5 
Q 33.703125 39.59375 33.703125 46.09375 
Q 33.703125 52.796875 30 56.5 
Q 26.296875 60.203125 19.796875 60.203125 
Q 14.40625 60.203125 11.25 57.390625 
Q 8.09375 54.59375 5.09375 47.203125 
L 3 47.703125 
Q 4.703125 57 9.84375 62.296875 
Q 15 67.59375 23.796875 67.59375 
Q 32.09375 67.59375 37.1875 62.59375 
Q 42.296875 57.59375 42.296875 50 
Q 42.296875 38.703125 29.5 25.203125 
L 13 7.59375 
L 36.40625 7.59375 
Q 39.703125 7.59375 41.640625 8.890625 
Q 43.59375 10.203125 46 14.296875 
z
" id="STIXGeneral-Regular-50"/>
      </defs>
      <g transform="translate(335.796 176.261687)scale(0.1 -0.1)">
       <use xlink:href="#STIXGeneral-Regular-50"/>
       <use x="49.999985" xlink:href="#STIXGeneral-Regular-48"/>
       <use x="99.999969" xlink:href="#STIXGeneral-Regular-48"/>
      </g>
     </g>
    </g>
    <g id="xtick_6">
     <g id="line2d_6">
      <g>
       <use style="stroke:#000000;stroke-width:0.8;" x="414.72" xlink:href="#m75cfcffd51" y="162.432"/>
      </g>
     </g>
     <g id="text_6">
      <!-- 250 -->
      <g transform="translate(407.22 176.261687)scale(0.1 -0.1)">
       <use xlink:href="#STIXGeneral-Regular-50"/>
       <use x="49.999985" xlink:href="#STIXGeneral-Regular-53"/>
       <use x="99.999969" xlink:href="#STIXGeneral-Regular-48"/>
      </g>
     </g>
    </g>
   </g>
   <g id="matplotlib.axis_2">
    <g id="ytick_1">
     <g id="line2d_7">
      <defs>
       <path d="M 0 0 
L -3.5 0 
" id="m69b192bb41" style="stroke:#000000;stroke-width:0.8;"/>
      </defs>
      <g>
       <use style="stroke:#000000;stroke-width:0.8;" x="57.6" xlink:href="#m69b192bb41" y="162.432"/>
      </g>
     </g>
     <g id="text_7">
      <!-- −60 -->
      <defs>
       <path d="M 62.09375 22 
L 6.40625 22 
L 6.40625 28.59375 
L 62.09375 28.59375 
z
" id="STIXGeneral-Regular-8722"/>
       <path d="M 44.59375 68.40625 
L 44.796875 66.796875 
Q 33 64.90625 25.09375 57.25 
Q 17.203125 49.59375 15.203125 38.296875 
Q 21 42.796875 27.90625 42.796875 
Q 36.703125 42.796875 41.75 37.1875 
Q 46.796875 31.59375 46.796875 21.90625 
Q 46.796875 12.09375 41.703125 5.90625 
Q 35.796875 -1.40625 25.796875 -1.40625 
Q 13.59375 -1.40625 8.09375 8.703125 
Q 3.40625 17.296875 3.40625 27.90625 
Q 3.40625 44.296875 14.296875 55.5 
Q 20.5 61.90625 27.046875 64.546875 
Q 33.59375 67.203125 44.59375 68.40625 
z
M 37.796875 18.796875 
Q 37.796875 38.203125 24.296875 38.203125 
Q 19.296875 38.203125 16 35.546875 
Q 12.703125 32.90625 12.703125 26.59375 
Q 12.703125 14.90625 16.34375 8.15625 
Q 20 1.40625 26.90625 1.40625 
Q 32.203125 1.40625 35 6.15625 
Q 37.796875 10.90625 37.796875 18.796875 
z
" id="STIXGeneral-Regular-54"/>
      </defs>
      <g transform="translate(33.75 165.846844)scale(0.1 -0.1)">
       <use xlink:href="#STIXGeneral-Regular-8722"/>
       <use x="68.499985" xlink:href="#STIXGeneral-Regular-54"/>
       <use x="118.499969" xlink:href="#STIXGeneral-Regular-48"/>
      </g>
     </g>
    </g>
    <g id="ytick_2">
     <g id="line2d_8">
      <g>
       <use style="stroke:#000000;stroke-width:0.8;" x="57.6" xlink:href="#m69b192bb41" y="127.872"/>
      </g>
     </g>
     <g id="text_8">
      <!-- −40 -->
      <defs>
       <path d="M 47.296875 16.703125 
L 37 16.703125 
L 37 0 
L 29.203125 0 
L 29.203125 16.703125 
L 1.203125 16.703125 
L 1.203125 23.09375 
L 32.59375 67.59375 
L 37 67.59375 
L 37 23.09375 
L 47.296875 23.09375 
z
M 29.203125 23.09375 
L 29.203125 57.40625 
L 5.203125 23.09375 
z
" id="STIXGeneral-Regular-52"/>
      </defs>
      <g transform="translate(33.75 131.286844)scale(0.1 -0.1)">
       <use xlink:href="#STIXGeneral-Regular-8722"/>
       <use x="68.499985" xlink:href="#STIXGeneral-Regular-52"/>
       <use x="118.499969" xlink:href="#STIXGeneral-Regular-48"/>
      </g>
     </g>
    </g>
    <g id="ytick_3">
     <g id="line2d_9">
      <g>
       <use style="stroke:#000000;stroke-width:0.8;" x="57.6" xlink:href="#m69b192bb41" y="93.312"/>
      </g>
     </g>
     <g id="text_9">
      <!-- −20 -->
      <g transform="translate(33.75 96.726844)scale(0.1 -0.1)">
       <use xlink:href="#STIXGeneral-Regular-8722"/>
       <use x="68.499985" xlink:href="#STIXGeneral-Regular-50"/>
       <use x="118.499969" xlink:href="#STIXGeneral-Regular-48"/>
      </g>
     </g>
    </g>
    <g id="ytick_4">
     <g id="line2d_10">
      <g>
       <use style="stroke:#000000;stroke-width:0.8;" x="57.6" xlink:href="#m69b192bb41" y="58.752"/>
      </g>
     </g>
     <g id="text_10">
      <!-- 0 -->
      <g transform="translate(45.6 62.166844)scale(0.1 -0.1)">
       <use xlink:href="#STIXGeneral-Regular-48"/>
      </g>
     </g>
    </g>
    <g id="text_11">
     <!-- Magnitude [dB] -->
     <defs>
      <path d="M 86.40625 0 
L 58.40625 0 
L 58.40625 1.90625 
Q 64.296875 2.296875 65.84375 4.140625 
Q 67.40625 6 67.40625 12.296875 
L 67.40625 57.203125 
L 41.90625 0 
L 40.5 0 
L 15.296875 54.90625 
L 15.296875 15.09375 
Q 15.296875 7 17 4.59375 
Q 18.703125 2.203125 24.59375 1.90625 
L 24.59375 0 
L 1.203125 0 
L 1.203125 1.90625 
Q 5.59375 2.203125 7.5 3.203125 
Q 9.40625 4.203125 10.15625 6.75 
Q 10.90625 9.296875 10.90625 15.09375 
L 10.90625 54.90625 
Q 10.90625 60.59375 9.203125 62.25 
Q 7.5 63.90625 1.40625 64.296875 
L 1.40625 66.203125 
L 21.203125 66.203125 
L 44.296875 16 
L 66.40625 66.203125 
L 86.296875 66.203125 
L 86.296875 64.296875 
Q 80.90625 64.203125 79.25 62.390625 
Q 77.59375 60.59375 77.59375 55 
L 77.59375 11.203125 
Q 77.59375 5.90625 79.25 4.09375 
Q 80.90625 2.296875 86.40625 1.90625 
z
" id="STIXGeneral-Regular-77"/>
      <path d="M 44.203125 6.59375 
L 44.203125 3.796875 
Q 40.40625 -1 35.203125 -1 
Q 29.5 -1 28.796875 6.296875 
L 28.703125 6.296875 
Q 22.296875 -1 14.203125 -1 
Q 9.5 -1 6.59375 1.75 
Q 3.703125 4.5 3.703125 9.40625 
Q 3.703125 16.40625 10.703125 21.09375 
Q 15.5 24.296875 28.703125 29.203125 
L 28.703125 34.59375 
Q 28.703125 39.09375 26.546875 41.34375 
Q 24.40625 43.59375 20.90625 43.59375 
Q 17.90625 43.59375 15.90625 42.140625 
Q 13.90625 40.703125 13.90625 38.703125 
Q 13.90625 37.796875 14.203125 36.6875 
Q 14.5 35.59375 14.5 34.5 
Q 14.5 33 13.140625 31.703125 
Q 11.796875 30.40625 9.90625 30.40625 
Q 8.203125 30.40625 6.890625 31.703125 
Q 5.59375 33 5.59375 35 
Q 5.59375 39.796875 10.703125 43 
Q 15.40625 46 22.203125 46 
Q 30.296875 46 34 41.5 
Q 35.796875 39.40625 36.296875 37.25 
Q 36.796875 35.09375 36.796875 30.40625 
L 36.796875 11.296875 
Q 36.796875 4.703125 39.90625 4.703125 
Q 41.90625 4.703125 44.203125 6.59375 
z
M 28.703125 12.703125 
L 28.703125 26.796875 
Q 19.5 23.59375 15.90625 20.203125 
Q 12.5 17.09375 12.5 12.5 
Q 12.5 8.703125 14.390625 6.75 
Q 16.296875 4.796875 19.40625 4.796875 
Q 22.703125 4.796875 25.203125 6.40625 
Q 27.296875 7.90625 28 9.203125 
Q 28.703125 10.5 28.703125 12.703125 
z
" id="STIXGeneral-Regular-97"/>
      <path d="M 47 38.796875 
L 38.703125 38.796875 
Q 40.59375 34.5 40.59375 30.40625 
Q 40.59375 22.703125 35.390625 18.796875 
Q 30.203125 14.90625 25 14.90625 
Q 23.90625 14.90625 21.203125 15.203125 
L 19.296875 15.40625 
Q 17.296875 14.796875 15.296875 12.6875 
Q 13.296875 10.59375 13.296875 9.09375 
Q 13.296875 6.796875 21.09375 6.40625 
L 34 5.796875 
Q 39.5 5.59375 42.796875 2.6875 
Q 46.09375 -0.203125 46.09375 -4.90625 
Q 46.09375 -10.703125 40.09375 -15.40625 
Q 31.796875 -21.796875 20.09375 -21.796875 
Q 12.90625 -21.796875 7.84375 -18.9375 
Q 2.796875 -16.09375 2.796875 -12.09375 
Q 2.796875 -9.296875 5 -6.546875 
Q 7.203125 -3.796875 12.59375 0.09375 
Q 9.40625 1.59375 8.34375 2.6875 
Q 7.296875 3.796875 7.296875 5.40625 
Q 7.296875 8.296875 11.90625 12.296875 
Q 14.203125 14.296875 16.203125 16.296875 
Q 11.203125 18.796875 9.046875 21.890625 
Q 6.90625 25 6.90625 29.703125 
Q 6.90625 36.5 11.75 41.25 
Q 16.59375 46 23.59375 46 
Q 27.59375 46 31.59375 44.5 
L 33.796875 43.703125 
Q 36.703125 42.703125 39.296875 42.703125 
L 47 42.703125 
z
M 15.203125 33.796875 
L 15.203125 33.5 
Q 15.203125 26.296875 18.046875 21.84375 
Q 20.90625 17.40625 25.5 17.40625 
Q 28.90625 17.40625 30.90625 19.84375 
Q 32.90625 22.296875 32.90625 26.40625 
Q 32.90625 33 29.90625 38.5 
Q 27.40625 43.203125 22.59375 43.203125 
Q 19.09375 43.203125 17.140625 40.703125 
Q 15.203125 38.203125 15.203125 33.796875 
z
M 43.296875 -6.40625 
Q 43.296875 -3.59375 40.546875 -2.546875 
Q 37.796875 -1.5 30.90625 -1.5 
Q 21 -1.5 14.703125 -0.203125 
Q 11.703125 -3.796875 10.75 -5.4375 
Q 9.796875 -7.09375 9.796875 -8.796875 
Q 9.796875 -12.09375 13.75 -14.09375 
Q 17.703125 -16.09375 24.296875 -16.09375 
Q 32.796875 -16.09375 38.046875 -13.4375 
Q 43.296875 -10.796875 43.296875 -6.40625 
z
" id="STIXGeneral-Regular-103"/>
      <path d="M 48.5 0 
L 27.703125 0 
L 27.796875 1.5 
Q 31.5 1.796875 32.75 3.640625 
Q 34 5.5 34 10.5 
L 34 30.40625 
Q 34 40.5 26.703125 40.5 
Q 24.203125 40.5 22 39.296875 
Q 19.796875 38.09375 16.40625 34.796875 
L 16.40625 7.203125 
Q 16.40625 4.203125 17.75 3 
Q 19.09375 1.796875 22.90625 1.5 
L 22.90625 0 
L 1.796875 0 
L 1.796875 1.5 
Q 5.59375 1.796875 6.796875 3.34375 
Q 8 4.90625 8 9.40625 
L 8 33.703125 
Q 8 37.40625 7.296875 38.796875 
Q 6.59375 40.203125 4.5 40.203125 
Q 2.5 40.203125 1.59375 39.796875 
L 1.59375 41.5 
Q 8.59375 43.5 15.296875 46 
L 16.09375 45.703125 
L 16.09375 37.90625 
L 16.203125 37.90625 
Q 23.296875 46 30.59375 46 
Q 36.296875 46 39.34375 42 
Q 42.40625 38 42.40625 30.59375 
L 42.40625 8.5 
Q 42.40625 4.5 43.59375 3.203125 
Q 44.796875 1.90625 48.5 1.5 
z
" id="STIXGeneral-Regular-110"/>
      <path d="M 18 63.203125 
Q 18 61 16.5 59.546875 
Q 15 58.09375 12.796875 58.09375 
Q 10.703125 58.09375 9.25 59.546875 
Q 7.796875 61 7.796875 63.203125 
Q 7.796875 65.296875 9.296875 66.796875 
Q 10.796875 68.296875 12.90625 68.296875 
Q 15.09375 68.296875 16.546875 66.796875 
Q 18 65.296875 18 63.203125 
z
M 25.296875 0 
L 1.59375 0 
L 1.59375 1.5 
Q 6.796875 1.796875 8.140625 3.296875 
Q 9.5 4.796875 9.5 10.40625 
L 9.5 33.09375 
Q 9.5 36.59375 8.796875 38 
Q 8.09375 39.40625 6.203125 39.40625 
Q 3.796875 39.40625 2 38.90625 
L 2 40.5 
L 17.5 46 
L 17.90625 45.59375 
L 17.90625 10.5 
Q 17.90625 4.90625 19.15625 3.40625 
Q 20.40625 1.90625 25.296875 1.5 
z
" id="STIXGeneral-Regular-105"/>
      <path d="M 26.59375 7.703125 
L 27.90625 6.59375 
Q 23.09375 -1 15.796875 -1 
Q 7 -1 7 11.703125 
L 7 41.796875 
L 1.703125 41.796875 
Q 1.296875 42.09375 1.296875 42.5 
Q 1.296875 43.296875 3 44.40625 
Q 6.796875 46.59375 12.703125 55.09375 
Q 12.90625 55.40625 13.65625 56.34375 
Q 14.40625 57.296875 14.703125 57.90625 
Q 15.40625 57.90625 15.40625 56.59375 
L 15.40625 45 
L 25.5 45 
L 25.5 41.796875 
L 15.40625 41.796875 
L 15.40625 13.203125 
Q 15.40625 8.40625 16.59375 6.296875 
Q 17.796875 4.203125 20.59375 4.203125 
Q 23.59375 4.203125 26.59375 7.703125 
z
" id="STIXGeneral-Regular-116"/>
      <path d="M 48 5 
L 48 3.59375 
Q 40.203125 1.5 34.296875 -0.90625 
L 33.796875 -0.59375 
L 33.796875 7.59375 
L 33.59375 7.59375 
Q 27.296875 -1 19.296875 -1 
Q 13.59375 -1 10.34375 2.5 
Q 7.09375 6 7.09375 11.796875 
L 7.09375 36.90625 
Q 7.09375 40.59375 5.796875 42 
Q 4.5 43.40625 0.90625 43.59375 
L 0.90625 45 
L 15.5 45 
L 15.5 12.703125 
Q 15.5 9.296875 17.546875 7.046875 
Q 19.59375 4.796875 22.59375 4.796875 
Q 27.5 4.796875 31 7.90625 
Q 32.296875 9.09375 32.796875 10.140625 
Q 33.296875 11.203125 33.296875 13.703125 
L 33.296875 36.796875 
Q 33.296875 40.703125 31.890625 41.84375 
Q 30.5 43 25.90625 43.296875 
L 25.90625 45 
L 41.703125 45 
L 41.703125 10.703125 
Q 41.703125 7.203125 42.84375 6.09375 
Q 44 5 47.40625 5 
z
" id="STIXGeneral-Regular-117"/>
      <path d="M 49.09375 4.203125 
L 34.40625 -1 
L 34 -0.703125 
L 34 5.703125 
Q 29.203125 -1 21.203125 -1 
Q 12.90625 -1 7.796875 4.953125 
Q 2.703125 10.90625 2.703125 20.5 
Q 2.703125 31.09375 8.796875 38.546875 
Q 14.90625 46 23.5 46 
Q 28.90625 46 34 41.703125 
L 34 57.296875 
Q 34 60.40625 33.09375 61.40625 
Q 32.203125 62.40625 29.40625 62.40625 
Q 28 62.40625 27.203125 62.296875 
L 27.203125 63.90625 
Q 36.296875 66.296875 41.90625 68.296875 
L 42.40625 68.09375 
L 42.40625 11.40625 
Q 42.40625 7.90625 43.25 6.796875 
Q 44.09375 5.703125 46.796875 5.703125 
Q 47.40625 5.703125 49.09375 5.796875 
z
M 34 10.203125 
L 34 33.203125 
Q 34 37.203125 30.953125 40.203125 
Q 27.90625 43.203125 23.796875 43.203125 
Q 18.09375 43.203125 14.6875 38.09375 
Q 11.296875 33 11.296875 24.5 
Q 11.296875 15.296875 15.046875 9.75 
Q 18.796875 4.203125 25.09375 4.203125 
Q 29.796875 4.203125 32.5 7.40625 
Q 34 9.09375 34 10.203125 
z
" id="STIXGeneral-Regular-100"/>
      <path d="M 40.796875 16.40625 
L 42.40625 15.703125 
Q 36.40625 -1 21.5 -1 
Q 12.703125 -1 7.59375 5.140625 
Q 2.5 11.296875 2.5 21.703125 
Q 2.5 32.40625 8.203125 39.203125 
Q 13.90625 46 23.203125 46 
Q 32.203125 46 37.09375 39.09375 
Q 40 35.09375 40.5 27.703125 
L 9.703125 27.703125 
Q 10.09375 21.40625 10.9375 18.09375 
Q 11.796875 14.796875 14.296875 11.40625 
Q 18.5 5.90625 25.40625 5.90625 
Q 30.296875 5.90625 33.640625 8.296875 
Q 37 10.703125 40.796875 16.40625 
z
M 9.90625 30.90625 
L 30.296875 30.90625 
Q 29.40625 37.203125 27.34375 39.796875 
Q 25.296875 42.40625 20.5 42.40625 
Q 16.296875 42.40625 13.5 39.453125 
Q 10.703125 36.5 9.90625 30.90625 
z
" id="STIXGeneral-Regular-101"/>
      <path id="STIXGeneral-Regular-32"/>
      <path d="M 29.90625 -15.59375 
L 8.796875 -15.59375 
L 8.796875 66.203125 
L 29.90625 66.203125 
L 29.90625 63.703125 
L 21.59375 63.703125 
Q 19 63.703125 17.703125 62.59375 
Q 16.40625 61.5 16.40625 58.90625 
L 16.40625 -7.703125 
Q 16.40625 -13.09375 21.59375 -13.09375 
L 29.90625 -13.09375 
z
" id="STIXGeneral-Regular-91"/>
      <path d="M 42.203125 34.90625 
L 42.203125 34.796875 
Q 49.703125 33.59375 54.40625 29.296875 
Q 59.296875 24.90625 59.296875 17.796875 
Q 59.296875 9.5 52.796875 4.75 
Q 46.296875 0 35.40625 0 
L 1.703125 0 
L 1.703125 1.90625 
Q 7.59375 2.09375 9.4375 3.84375 
Q 11.296875 5.59375 11.296875 11.296875 
L 11.296875 55 
Q 11.296875 60.796875 9.59375 62.34375 
Q 7.90625 63.90625 1.703125 64.296875 
L 1.703125 66.203125 
L 29.703125 66.203125 
Q 42.59375 66.203125 49.25 61.84375 
Q 55.90625 57.5 55.90625 49.5 
Q 55.90625 42.703125 51.796875 39.09375 
Q 48.90625 36.59375 42.203125 34.90625 
z
M 21.5 36.59375 
L 30.703125 36.59375 
Q 45.703125 36.59375 45.703125 49 
Q 45.703125 55.40625 41.25 58.953125 
Q 36.796875 62.5 28 62.5 
L 23.90625 62.5 
Q 21.5 62.5 21.5 59.296875 
z
M 21.5 32.59375 
L 21.5 8.203125 
Q 21.5 5.703125 22.84375 4.703125 
Q 24.203125 3.703125 27.703125 3.703125 
Q 34.5 3.703125 37.703125 4.453125 
Q 40.90625 5.203125 44 8 
Q 47.796875 11.296875 47.796875 17.90625 
Q 47.796875 25.5 43.09375 28.59375 
Q 42 29.40625 40.890625 29.953125 
Q 39.796875 30.5 38.9375 30.84375 
Q 38.09375 31.203125 36.6875 31.5 
Q 35.296875 31.796875 34.546875 31.9375 
Q 33.796875 32.09375 31.890625 32.1875 
Q 30 32.296875 29.09375 32.34375 
Q 28.203125 32.40625 25.546875 32.5 
Q 22.90625 32.59375 21.5 32.59375 
z
" id="STIXGeneral-Regular-66"/>
      <path d="M 24.5 -15.59375 
L 3.40625 -15.59375 
L 3.40625 -13.09375 
L 12.203125 -13.09375 
Q 14.796875 -13.09375 15.84375 -12 
Q 16.90625 -10.90625 16.90625 -8.5 
L 16.90625 58.296875 
Q 16.90625 63.703125 11.796875 63.703125 
L 3.40625 63.703125 
L 3.40625 66.203125 
L 24.5 66.203125 
z
" id="STIXGeneral-Regular-93"/>
     </defs>
     <g transform="translate(27.570312 134.032469)rotate(-90)scale(0.1 -0.1)">
      <use xlink:href="#STIXGeneral-Regular-77"/>
      <use x="88.899994" xlink:href="#STIXGeneral-Regular-97"/>
      <use x="133.299988" xlink:href="#STIXGeneral-Regular-103"/>
      <use x="183.299973" xlink:href="#STIXGeneral-Regular-110"/>
      <use x="233.299957" xlink:href="#STIXGeneral-Regular-105"/>
      <use x="261.099945" xlink:href="#STIXGeneral-Regular-116"/>
      <use x="288.899933" xlink:href="#STIXGeneral-Regular-117"/>
      <use x="338.899918" xlink:href="#STIXGeneral-Regular-100"/>
      <use x="388.899902" xlink:href="#STIXGeneral-Regular-101"/>
      <use x="433.299896" xlink:href="#STIXGeneral-Regular-32"/>
      <use x="458.299881" xlink:href="#STIXGeneral-Regular-91"/>
      <use x="491.599869" xlink:href="#STIXGeneral-Regular-100"/>
      <use x="541.599854" xlink:href="#STIXGeneral-Regular-66"/>
      <use x="608.29985" xlink:href="#STIXGeneral-Regular-93"/>
     </g>
    </g>
   </g>
   <g id="line2d_11">
    <path clip-path="url(#p61b2de8bc8)" d="M 57.6 58.752 
L 62.395313 58.862342 
L 67.190625 59.195375 
L 71.89875 59.744985 
L 76.519688 60.50891 
L 80.96625 61.467772 
L 85.238438 62.61334 
L 89.33625 63.940307 
L 93.259688 65.446348 
L 96.921563 67.090147 
L 100.321875 68.856527 
L 103.460625 70.729944 
L 106.425 72.757233 
L 109.127813 74.873222 
L 111.569063 77.057642 
L 113.835938 79.379895 
L 115.928438 81.84735 
L 117.759375 84.341049 
L 119.415937 86.956611 
L 120.898125 89.689479 
L 122.293125 92.73391 
L 123.51375 95.937308 
L 124.56 99.276655 
L 125.519062 103.07706 
L 126.30375 107.02465 
L 127.00125 111.602264 
L 127.611563 117.109809 
L 128.134688 124.155748 
L 128.483438 131.697125 
L 128.745 141.676634 
L 128.919375 156.433322 
L 129.006563 183.343909 
L 129.268125 143.787066 
L 129.616875 130.541171 
L 130.052812 122.359371 
L 130.575938 116.299906 
L 131.273438 110.879474 
L 132.058125 106.561506 
L 132.93 102.968012 
L 133.889062 99.89611 
L 135.0225 97.025411 
L 136.243125 94.549361 
L 137.550938 92.38828 
L 139.033125 90.3813 
L 140.6025 88.635568 
L 142.259063 87.114601 
L 144.09 85.733214 
L 146.095313 84.507401 
L 148.187813 83.487969 
L 150.454688 82.631633 
L 152.895938 81.953995 
L 155.424375 81.484217 
L 158.04 81.219706 
L 160.83 81.165061 
L 163.62 81.332145 
L 166.497187 81.730647 
L 169.287187 82.337772 
L 172.077188 83.170746 
L 174.78 84.208687 
L 177.395625 85.452628 
L 179.836875 86.855568 
L 182.190937 88.467369 
L 184.370625 90.232043 
L 186.375937 92.140219 
L 188.206875 94.182186 
L 189.950625 96.46991 
L 191.52 98.90724 
L 192.915 101.482087 
L 194.222813 104.383299 
L 195.35625 107.446117 
L 196.4025 110.951292 
L 197.274375 114.645904 
L 198.059063 118.96093 
L 198.756563 124.19397 
L 199.279688 129.788583 
L 199.715625 136.834184 
L 200.064375 146.569522 
L 200.23875 155.682534 
L 200.325937 163.780244 
L 200.413125 182.591098 
L 200.500313 176.513313 
L 200.761875 149.644596 
L 201.110625 138.462688 
L 201.546562 130.917807 
L 202.156875 124.349281 
L 202.854375 119.28792 
L 203.639063 115.142598 
L 204.598125 111.316795 
L 205.644375 108.080914 
L 206.777812 105.280643 
L 208.085625 102.662112 
L 209.480625 100.375249 
L 210.962812 98.359889 
L 212.619375 96.484739 
L 214.363125 94.841038 
L 216.28125 93.339491 
L 218.286563 92.045506 
L 220.46625 90.901296 
L 222.820312 89.92281 
L 225.261562 89.149977 
L 227.79 88.577774 
L 230.492813 88.1978 
L 233.195625 88.039875 
L 235.985625 88.099122 
L 238.775625 88.380461 
L 241.565625 88.887036 
L 244.268438 89.602387 
L 246.884062 90.52143 
L 249.4125 91.644962 
L 251.766562 92.927694 
L 254.033437 94.415235 
L 256.125938 96.051621 
L 258.044062 97.823894 
L 259.875 99.82055 
L 261.531563 101.956762 
L 263.01375 104.217098 
L 264.40875 106.749993 
L 265.629375 109.41137 
L 266.762812 112.413362 
L 267.809062 115.858259 
L 268.680938 119.496347 
L 269.465625 123.749778 
L 270.163125 128.907423 
L 270.68625 134.410786 
L 271.122187 141.306638 
L 271.470937 150.712868 
L 271.645312 159.284158 
L 271.906875 187.390758 
L 272.08125 160.506411 
L 272.43 145.802896 
L 272.865938 137.161878 
L 273.389063 130.846288 
L 274.086563 125.214101 
L 274.87125 120.71825 
L 275.743125 116.957695 
L 276.789375 113.45983 
L 277.922813 110.458711 
L 279.143438 107.834768 
L 280.538437 105.371195 
L 282.020625 103.203161 
L 283.677188 101.184236 
L 285.420937 99.409198 
L 287.339063 97.779101 
L 289.344375 96.363099 
L 291.524063 95.096455 
L 293.790937 94.030793 
L 296.232188 93.128367 
L 298.760625 92.42856 
L 301.37625 91.930557 
L 304.079063 91.638798 
L 306.869063 91.563163 
L 309.659063 91.711504 
L 312.449063 92.085542 
L 315.151875 92.671466 
L 317.7675 93.462648 
L 320.295938 94.458176 
L 322.737188 95.663064 
L 325.004063 97.031162 
L 327.096563 98.547793 
L 329.101875 100.280074 
L 330.932813 102.15927 
L 332.589375 104.172054 
L 334.15875 106.43712 
L 335.55375 108.842377 
L 336.861562 111.56024 
L 337.995 114.430362 
L 339.04125 117.705809 
L 339.913125 121.135061 
L 340.697812 125.091019 
L 341.395313 129.783147 
L 342.005625 135.599935 
L 342.441563 141.792382 
L 342.790313 149.670345 
L 343.051875 160.605328 
L 343.22625 179.411804 
L 343.313438 200.220846 
L 343.487813 164.234226 
L 343.836563 148.691973 
L 344.2725 139.828501 
L 344.795625 133.406897 
L 345.493125 127.701391 
L 346.277813 123.153719 
L 347.149688 119.350505 
L 348.195938 115.810829 
L 349.329375 112.770198 
L 350.55 110.107355 
L 351.945 107.602035 
L 353.427188 105.391621 
L 355.08375 103.326913 
L 356.8275 101.504936 
L 358.745625 99.824291 
L 360.750938 98.356375 
L 362.930625 97.034163 
L 365.284688 95.872921 
L 367.725938 94.918342 
L 370.254375 94.164246 
L 372.87 93.610045 
L 375.572813 93.260375 
L 378.362813 93.125301 
L 381.152813 93.214698 
L 383.942813 93.530434 
L 386.645625 94.060647 
L 389.26125 94.798811 
L 391.789688 95.744148 
L 394.14375 96.855951 
L 396.410625 98.171654 
L 398.503125 99.639763 
L 400.508438 101.325233 
L 402.339375 103.161208 
L 403.995938 105.134212 
L 405.565313 107.360605 
L 406.960313 109.730146 
L 408.268125 112.412568 
L 409.401562 115.249296 
L 410.447812 118.489867 
L 411.319688 121.884384 
L 412.104375 125.800078 
L 412.801875 130.440405 
L 413.412188 136.179573 
L 413.848125 142.260826 
L 414.196875 149.925634 
L 414.458438 160.328267 
L 414.632812 176.817293 
L 414.632812 176.817293 
" style="fill:none;stroke:#0000ff;stroke-linecap:square;stroke-width:1.5;"/>
   </g>
   <g id="line2d_12">
    <path clip-path="url(#p61b2de8bc8)" d="M 57.6 58.752 
L 61.43625 58.861297 
L 65.446875 59.198918 
L 69.893438 59.804259 
L 75.124687 60.753043 
L 82.186875 62.280723 
L 111.394688 68.832823 
L 122.11875 70.889652 
L 133.27875 72.801472 
L 145.223438 74.618182 
L 158.127187 76.351693 
L 172.164375 78.009176 
L 187.422187 79.584367 
L 204.162188 81.085264 
L 222.384375 82.49195 
L 242.175938 83.793142 
L 263.536875 84.971543 
L 286.467188 86.010872 
L 310.7925 86.88911 
L 336.425625 87.590853 
L 363.105 88.098135 
L 390.569063 88.397468 
L 414.632812 88.480687 
L 414.632812 88.480687 
" style="fill:none;stroke:#008000;stroke-linecap:square;stroke-width:1.5;"/>
   </g>
   <g id="line2d_13">
    <path clip-path="url(#p61b2de8bc8)" d="M 89.374414 162.432 
L 89.374414 41.472 
" style="fill:none;stroke:#ff0000;stroke-linecap:square;stroke-width:1.5;"/>
   </g>
   <g id="line2d_14">
    <path clip-path="url(#p61b2de8bc8)" d="M 57.6 63.95328 
L 414.72 63.95328 
" style="fill:none;stroke:#000000;stroke-dasharray:0.8,1.32;stroke-dashoffset:0;stroke-width:0.8;"/>
   </g>
   <g id="patch_3">
    <path d="M 57.6 162.432 
L 57.6 41.472 
" style="fill:none;stroke:#000000;stroke-linecap:square;stroke-linejoin:miter;stroke-width:0.8;"/>
   </g>
   <g id="patch_4">
    <path d="M 414.72 162.432 
L 414.72 41.472 
" style="fill:none;stroke:#000000;stroke-linecap:square;stroke-linejoin:miter;stroke-width:0.8;"/>
   </g>
   <g id="patch_5">
    <path d="M 57.6 162.432 
L 414.72 162.432 
" style="fill:none;stroke:#000000;stroke-linecap:square;stroke-linejoin:miter;stroke-width:0.8;"/>
   </g>
   <g id="patch_6">
    <path d="M 57.6 41.472 
L 414.72 41.472 
" style="fill:none;stroke:#000000;stroke-linecap:square;stroke-linejoin:miter;stroke-width:0.8;"/>
   </g>
   <g id="legend_1">
    <g id="patch_7">
     <path d="M 353.499688 157.432 
L 407.72 157.432 
Q 409.72 157.432 409.72 155.432 
L 409.72 128.091375 
Q 409.72 126.091375 407.72 126.091375 
L 353.499688 126.091375 
Q 351.499688 126.091375 351.499688 128.091375 
L 351.499688 155.432 
Q 351.499688 157.432 353.499688 157.432 
z
" style="fill:#ffffff;opacity:0.8;stroke:#cccccc;stroke-linejoin:miter;"/>
    </g>
    <g id="line2d_15">
     <path d="M 355.499688 133.591375 
L 375.499688 133.591375 
" style="fill:none;stroke:#0000ff;stroke-linecap:square;stroke-width:1.5;"/>
    </g>
    <g id="line2d_16"/>
    <g id="text_12">
     <!-- SMA -->
     <defs>
      <path d="M 46.90625 46.296875 
L 44.40625 46.296875 
Q 42.703125 52.5 40.296875 55.703125 
Q 34.203125 63.5 25.796875 63.5 
Q 21.203125 63.5 18.453125 60.84375 
Q 15.703125 58.203125 15.703125 54 
Q 15.703125 52 16.703125 50.09375 
Q 17.703125 48.203125 18.84375 46.84375 
Q 20 45.5 22.890625 43.5 
Q 25.796875 41.5 27.59375 40.453125 
Q 29.40625 39.40625 33.59375 36.90625 
Q 41.703125 32.203125 45.390625 27.546875 
Q 49.09375 22.90625 49.09375 17.296875 
Q 49.09375 9 43.296875 3.796875 
Q 37.5 -1.40625 28.703125 -1.40625 
Q 22.203125 -1.40625 16.90625 0.90625 
Q 14.296875 2 12.203125 2 
Q 11 2 10.203125 1.09375 
Q 9.40625 0.203125 9.40625 -1.296875 
L 7.203125 -1.296875 
L 4.296875 19.90625 
L 6.5 19.90625 
Q 13.203125 2.203125 27.09375 2.203125 
Q 32.40625 2.203125 35.703125 5.34375 
Q 39 8.5 39 13.40625 
Q 39 18.09375 36.09375 21.296875 
Q 31.296875 26.5 19.296875 32.90625 
Q 7.09375 39.40625 7.09375 50.09375 
Q 7.09375 58.09375 12 62.84375 
Q 16.90625 67.59375 24.5 67.59375 
Q 29.796875 67.59375 35 65.40625 
Q 37.703125 64.203125 39.40625 64.203125 
Q 42 64.203125 42.59375 67.59375 
L 44.703125 67.59375 
z
" id="STIXGeneral-Regular-83"/>
      <path d="M 70.703125 0 
L 45.203125 0 
L 45.203125 1.90625 
Q 49.203125 1.90625 50.703125 2.796875 
Q 52.09375 3.5 52.09375 5.203125 
Q 52.09375 7.796875 50.203125 12.203125 
L 46.09375 21.59375 
L 19.90625 21.59375 
L 15.296875 10.203125 
Q 14.40625 7.90625 14.40625 6 
Q 14.40625 3.703125 16.046875 2.796875 
Q 17.703125 1.90625 21.40625 1.90625 
L 21.40625 0 
L 1.5 0 
L 1.5 1.90625 
Q 5.703125 2.296875 7.59375 4.9375 
Q 9.5 7.59375 14.09375 18.59375 
L 34.703125 67.40625 
L 36.703125 67.40625 
L 61.296875 11.09375 
Q 63.5 5.90625 65.25 4.09375 
Q 67 2.296875 70.703125 1.90625 
z
M 44.703125 25.703125 
L 33.09375 53.203125 
L 21.59375 25.703125 
z
" id="STIXGeneral-Regular-65"/>
     </defs>
     <g transform="translate(383.499688 137.091375)scale(0.1 -0.1)">
      <use xlink:href="#STIXGeneral-Regular-83"/>
      <use x="55.599991" xlink:href="#STIXGeneral-Regular-77"/>
      <use x="144.499985" xlink:href="#STIXGeneral-Regular-65"/>
     </g>
    </g>
    <g id="line2d_17">
     <path d="M 355.499688 147.761687 
L 375.499688 147.761687 
" style="fill:none;stroke:#008000;stroke-linecap:square;stroke-width:1.5;"/>
    </g>
    <g id="line2d_18"/>
    <g id="text_13">
     <!-- EMA -->
     <defs>
      <path d="M 59.703125 16.90625 
L 55.09375 0 
L 1.203125 0 
L 1.203125 1.90625 
Q 6.90625 2.296875 8.40625 3.9375 
Q 9.90625 5.59375 9.90625 11.40625 
L 9.90625 55 
Q 9.90625 60.59375 8.34375 62.296875 
Q 6.796875 64 1.203125 64.296875 
L 1.203125 66.203125 
L 54.203125 66.203125 
L 54.59375 51.90625 
L 52.09375 51.90625 
Q 51 58.59375 48.203125 60.5 
Q 45.40625 62.40625 36.703125 62.40625 
L 23.59375 62.40625 
Q 21.40625 62.40625 20.75 61.75 
Q 20.09375 61.09375 20.09375 58.796875 
L 20.09375 36.796875 
L 35.203125 36.796875 
Q 41.5 36.796875 43.546875 38.59375 
Q 45.59375 40.40625 46.5 46.40625 
L 48.796875 46.40625 
L 48.796875 23 
L 46.5 23 
Q 45.59375 29.296875 43.59375 31 
Q 41.59375 32.703125 35.203125 32.703125 
L 20.09375 32.703125 
L 20.09375 8.40625 
Q 20.09375 5.40625 22.1875 4.546875 
Q 24.296875 3.703125 30.203125 3.703125 
L 33.796875 3.703125 
Q 44.5 3.703125 49 6.296875 
Q 53.5 8.90625 56.90625 16.90625 
z
" id="STIXGeneral-Regular-69"/>
     </defs>
     <g transform="translate(383.499688 151.261687)scale(0.1 -0.1)">
      <use xlink:href="#STIXGeneral-Regular-69"/>
      <use x="61.099991" xlink:href="#STIXGeneral-Regular-77"/>
      <use x="149.999985" xlink:href="#STIXGeneral-Regular-65"/>
     </g>
    </g>
   </g>
  </g>
  <g id="axes_2">
   <g id="patch_8">
    <path d="M 57.6 307.584 
L 414.72 307.584 
L 414.72 186.624 
L 57.6 186.624 
z
" style="fill:#ffffff;"/>
   </g>
   <g id="matplotlib.axis_3">
    <g id="xtick_7">
     <g id="line2d_19">
      <g>
       <use style="stroke:#000000;stroke-width:0.8;" x="57.6" xlink:href="#m75cfcffd51" y="307.584"/>
      </g>
     </g>
     <g id="text_14">
      <!-- 0 -->
      <g transform="translate(55.1 321.413687)scale(0.1 -0.1)">
       <use xlink:href="#STIXGeneral-Regular-48"/>
      </g>
     </g>
    </g>
    <g id="xtick_8">
     <g id="line2d_20">
      <g>
       <use style="stroke:#000000;stroke-width:0.8;" x="129.024" xlink:href="#m75cfcffd51" y="307.584"/>
      </g>
     </g>
     <g id="text_15">
      <!-- 50 -->
      <g transform="translate(124.024 321.413687)scale(0.1 -0.1)">
       <use xlink:href="#STIXGeneral-Regular-53"/>
       <use x="49.999985" xlink:href="#STIXGeneral-Regular-48"/>
      </g>
     </g>
    </g>
    <g id="xtick_9">
     <g id="line2d_21">
      <g>
       <use style="stroke:#000000;stroke-width:0.8;" x="200.448" xlink:href="#m75cfcffd51" y="307.584"/>
      </g>
     </g>
     <g id="text_16">
      <!-- 100 -->
      <g transform="translate(192.948 321.413687)scale(0.1 -0.1)">
       <use xlink:href="#STIXGeneral-Regular-49"/>
       <use x="49.999985" xlink:href="#STIXGeneral-Regular-48"/>
       <use x="99.999969" xlink:href="#STIXGeneral-Regular-48"/>
      </g>
     </g>
    </g>
    <g id="xtick_10">
     <g id="line2d_22">
      <g>
       <use style="stroke:#000000;stroke-width:0.8;" x="271.872" xlink:href="#m75cfcffd51" y="307.584"/>
      </g>
     </g>
     <g id="text_17">
      <!-- 150 -->
      <g transform="translate(264.372 321.413687)scale(0.1 -0.1)">
       <use xlink:href="#STIXGeneral-Regular-49"/>
       <use x="49.999985" xlink:href="#STIXGeneral-Regular-53"/>
       <use x="99.999969" xlink:href="#STIXGeneral-Regular-48"/>
      </g>
     </g>
    </g>
    <g id="xtick_11">
     <g id="line2d_23">
      <g>
       <use style="stroke:#000000;stroke-width:0.8;" x="343.296" xlink:href="#m75cfcffd51" y="307.584"/>
      </g>
     </g>
     <g id="text_18">
      <!-- 200 -->
      <g transform="translate(335.796 321.413687)scale(0.1 -0.1)">
       <use xlink:href="#STIXGeneral-Regular-50"/>
       <use x="49.999985" xlink:href="#STIXGeneral-Regular-48"/>
       <use x="99.999969" xlink:href="#STIXGeneral-Regular-48"/>
      </g>
     </g>
    </g>
    <g id="xtick_12">
     <g id="line2d_24">
      <g>
       <use style="stroke:#000000;stroke-width:0.8;" x="414.72" xlink:href="#m75cfcffd51" y="307.584"/>
      </g>
     </g>
     <g id="text_19">
      <!-- 250 -->
      <g transform="translate(407.22 321.413687)scale(0.1 -0.1)">
       <use xlink:href="#STIXGeneral-Regular-50"/>
       <use x="49.999985" xlink:href="#STIXGeneral-Regular-53"/>
       <use x="99.999969" xlink:href="#STIXGeneral-Regular-48"/>
      </g>
     </g>
    </g>
    <g id="text_20">
     <!-- Frequency [Hz] -->
     <defs>
      <path d="M 54.59375 51.90625 
L 52.09375 51.90625 
Q 51 58.703125 48.34375 60.546875 
Q 45.703125 62.40625 36.703125 62.40625 
L 23.5 62.40625 
Q 21.40625 62.40625 20.75 61.65625 
Q 20.09375 60.90625 20.09375 58.5 
L 20.09375 36.796875 
L 34.296875 36.796875 
Q 40.59375 36.796875 42.75 38.59375 
Q 44.90625 40.40625 45.59375 46.296875 
L 47.90625 46.296875 
L 47.90625 23 
L 45.59375 23 
Q 45 29.09375 42.890625 30.890625 
Q 40.796875 32.703125 34.296875 32.703125 
L 20.09375 32.703125 
L 20.09375 11.203125 
Q 20.09375 5.5 21.75 3.84375 
Q 23.40625 2.203125 29.203125 1.90625 
L 29.203125 0 
L 1.09375 0 
L 1.09375 1.90625 
Q 6.796875 2.296875 8.34375 4.046875 
Q 9.90625 5.796875 9.90625 12.296875 
L 9.90625 55.09375 
Q 9.90625 60.59375 8.40625 62.25 
Q 6.90625 63.90625 1.203125 64.296875 
L 1.203125 66.203125 
L 54.09375 66.203125 
z
" id="STIXGeneral-Regular-70"/>
      <path d="M 16 45.796875 
L 16 36.59375 
Q 19.796875 42 22.34375 44 
Q 24.90625 46 28 46 
Q 30.59375 46 32.046875 44.59375 
Q 33.5 43.203125 33.5 40.703125 
Q 33.5 38.59375 32.453125 37.390625 
Q 31.40625 36.203125 29.59375 36.203125 
Q 27.703125 36.203125 25.59375 38.203125 
Q 24 39.703125 23 39.703125 
Q 20.90625 39.703125 18.453125 36.796875 
Q 16 33.90625 16 31.5 
L 16 9 
Q 16 4.703125 17.703125 3.203125 
Q 19.40625 1.703125 24.5 1.5 
L 24.5 0 
L 0.5 0 
L 0.5 1.5 
Q 5.296875 2.40625 6.4375 3.5 
Q 7.59375 4.59375 7.59375 8.40625 
L 7.59375 33.40625 
Q 7.59375 36.703125 6.84375 38.046875 
Q 6.09375 39.40625 4.203125 39.40625 
Q 2.59375 39.40625 0.703125 39 
L 0.703125 40.59375 
Q 7 42.59375 15.5 46 
z
" id="STIXGeneral-Regular-114"/>
      <path d="M 48.796875 -21.703125 
L 25.203125 -21.703125 
L 25.203125 -20 
Q 30.5 -19.59375 32.296875 -18.09375 
Q 34.09375 -16.59375 34.09375 -12.40625 
L 34.09375 6.40625 
Q 27.296875 -1 18.40625 -1 
Q 11.40625 -1 6.90625 5 
Q 2.40625 11 2.40625 20.5 
Q 2.40625 31.296875 8.75 38.640625 
Q 15.09375 46 24.40625 46 
Q 30 46 36 42.5 
L 41.40625 45.703125 
L 42.5 45.703125 
L 42.5 -14.09375 
Q 42.5 -17.296875 43.703125 -18.4375 
Q 44.90625 -19.59375 48.796875 -20 
z
M 34.09375 12.703125 
L 34.09375 33.296875 
Q 34.09375 43.09375 24.796875 43.09375 
Q 18.40625 43.09375 14.703125 38 
Q 11 32.90625 11 24.09375 
Q 11 18.90625 12.546875 14.453125 
Q 14.09375 10 16.59375 7.796875 
Q 19.59375 5.09375 24.09375 5.09375 
Q 29.40625 5.09375 32.90625 8.296875 
Q 34.09375 9.40625 34.09375 12.703125 
z
" id="STIXGeneral-Regular-113"/>
      <path d="M 39.796875 15.59375 
L 41.203125 14.703125 
Q 36.90625 6.296875 33 3.203125 
Q 27.90625 -1 21.5 -1 
Q 13.203125 -1 7.84375 5.25 
Q 2.5 11.5 2.5 21.203125 
Q 2.5 33.90625 10.90625 40.90625 
Q 17.09375 46 24.40625 46 
Q 30.703125 46 35.25 42.953125 
Q 39.796875 39.90625 39.796875 35.703125 
Q 39.796875 34 38.390625 32.75 
Q 37 31.5 35.09375 31.5 
Q 31.59375 31.5 30.296875 36.09375 
L 29.703125 38.296875 
Q 28.90625 41.09375 27.703125 42.09375 
Q 26.5 43.09375 23.796875 43.09375 
Q 17.703125 43.09375 13.953125 38.296875 
Q 10.203125 33.5 10.203125 25.703125 
Q 10.203125 17.09375 14.5 11.640625 
Q 18.796875 6.203125 25.703125 6.203125 
Q 30 6.203125 33.09375 8.25 
Q 36.203125 10.296875 39.796875 15.59375 
z
" id="STIXGeneral-Regular-99"/>
      <path d="M 47.5 45 
L 47.5 43.5 
Q 45.703125 43.296875 44.59375 42.1875 
Q 43.5 41.09375 42.5 38.40625 
L 27.5 -2.5 
Q 23.59375 -13.09375 19.640625 -17.4375 
Q 15.703125 -21.796875 10 -21.796875 
Q 6.796875 -21.796875 4.890625 -20.140625 
Q 3 -18.5 3 -16 
Q 3 -14.09375 4.25 -12.75 
Q 5.5 -11.40625 7.296875 -11.40625 
Q 10.203125 -11.40625 12.5 -12.703125 
Q 13.796875 -13.40625 15.09375 -13.40625 
Q 17.203125 -13.40625 20.09375 -9 
Q 21.5 -7 22.796875 -3.296875 
Q 24.09375 0.40625 24.09375 1.796875 
Q 24.09375 3.09375 19.90625 11.90625 
L 6.703125 40.09375 
Q 5.40625 43 1.40625 43.59375 
L 1.40625 45 
L 21.90625 45 
L 21.90625 43.5 
Q 18.703125 43.40625 17.453125 42.796875 
Q 16.203125 42.203125 16.203125 40.796875 
Q 16.203125 39.703125 17.5 36.703125 
L 28.703125 11.703125 
L 38.40625 39.296875 
Q 38.796875 40.203125 38.796875 41.09375 
Q 38.796875 43.5 34.203125 43.5 
L 34.203125 45 
z
" id="STIXGeneral-Regular-121"/>
      <path d="M 70.296875 0 
L 42.40625 0 
L 42.40625 1.90625 
Q 48.203125 2.296875 49.703125 4.140625 
Q 51.203125 6 51.203125 12.40625 
L 51.203125 31.5 
L 20.90625 31.5 
L 20.90625 11.296875 
Q 20.90625 5.796875 22.5 4 
Q 24.09375 2.203125 29.59375 1.90625 
L 29.703125 0 
L 1.796875 0 
L 1.796875 1.90625 
Q 7.703125 2.296875 9.203125 4.046875 
Q 10.703125 5.796875 10.703125 12.203125 
L 10.703125 54.796875 
Q 10.703125 60.59375 9.140625 62.1875 
Q 7.59375 63.796875 1.796875 64.296875 
L 1.796875 66.203125 
L 29.796875 66.203125 
L 29.796875 64.296875 
Q 24.203125 63.796875 22.546875 62.140625 
Q 20.90625 60.5 20.90625 54.796875 
L 20.90625 35.90625 
L 51.203125 35.90625 
L 51.203125 54.796875 
Q 51.203125 60.59375 49.640625 62.1875 
Q 48.09375 63.796875 42.296875 64.296875 
L 42.296875 66.203125 
L 70.296875 66.203125 
L 70.296875 64.296875 
Q 64.703125 63.796875 63.046875 62.140625 
Q 61.40625 60.5 61.40625 54.796875 
L 61.40625 11.09375 
Q 61.40625 5.796875 63.046875 4.046875 
Q 64.703125 2.296875 70.296875 1.90625 
z
" id="STIXGeneral-Regular-72"/>
      <path d="M 41.796875 13.59375 
L 40.296875 0 
L 2.703125 0 
L 2.703125 1.5 
L 29.296875 42 
L 15.796875 42 
Q 11.09375 42 9.4375 40.34375 
Q 7.796875 38.703125 7.09375 33.203125 
L 5.296875 33.203125 
L 5.703125 45 
L 40.296875 45 
L 40.296875 43.5 
L 13.40625 3 
L 26.703125 3 
Q 35.09375 3 37.296875 5.703125 
Q 38.703125 7.40625 40 14 
z
" id="STIXGeneral-Regular-122"/>
     </defs>
     <g transform="translate(204.644375 334.404312)scale(0.1 -0.1)">
      <use xlink:href="#STIXGeneral-Regular-70"/>
      <use x="55.599991" xlink:href="#STIXGeneral-Regular-114"/>
      <use x="88.899979" xlink:href="#STIXGeneral-Regular-101"/>
      <use x="133.299973" xlink:href="#STIXGeneral-Regular-113"/>
      <use x="183.299957" xlink:href="#STIXGeneral-Regular-117"/>
      <use x="233.299942" xlink:href="#STIXGeneral-Regular-101"/>
      <use x="277.699936" xlink:href="#STIXGeneral-Regular-110"/>
      <use x="327.699921" xlink:href="#STIXGeneral-Regular-99"/>
      <use x="372.099915" xlink:href="#STIXGeneral-Regular-121"/>
      <use x="422.099899" xlink:href="#STIXGeneral-Regular-32"/>
      <use x="447.099884" xlink:href="#STIXGeneral-Regular-91"/>
      <use x="480.399872" xlink:href="#STIXGeneral-Regular-72"/>
      <use x="552.599854" xlink:href="#STIXGeneral-Regular-122"/>
      <use x="596.999847" xlink:href="#STIXGeneral-Regular-93"/>
     </g>
    </g>
   </g>
   <g id="matplotlib.axis_4">
    <g id="ytick_5">
     <g id="line2d_25">
      <g>
       <use style="stroke:#000000;stroke-width:0.8;" x="57.6" xlink:href="#m69b192bb41" y="307.584"/>
      </g>
     </g>
     <g id="text_21">
      <!-- −180 -->
      <defs>
       <path d="M 44.5 15.5 
Q 44.5 7.796875 39.140625 3.1875 
Q 33.796875 -1.40625 24.796875 -1.40625 
Q 16.40625 -1.40625 11 3.1875 
Q 5.59375 7.796875 5.59375 14.90625 
Q 5.59375 20.203125 8.1875 23.953125 
Q 10.796875 27.703125 18.59375 33.203125 
Q 11.09375 39.40625 8.640625 43.203125 
Q 6.203125 47 6.203125 52 
Q 6.203125 59.09375 11.640625 63.34375 
Q 17.09375 67.59375 25.59375 67.59375 
Q 32.90625 67.59375 37.65625 63.4375 
Q 42.40625 59.296875 42.40625 53.296875 
Q 42.40625 47.796875 39.546875 44.5 
Q 36.703125 41.203125 29 37.09375 
Q 38 31.09375 41.25 26.390625 
Q 44.5 21.703125 44.5 15.5 
z
M 35.5 53.296875 
Q 35.5 58.5 32.59375 61.640625 
Q 29.703125 64.796875 24.59375 64.796875 
Q 19.5 64.796875 16.546875 62.140625 
Q 13.59375 59.5 13.59375 54.890625 
Q 13.59375 50.296875 16.546875 46.546875 
Q 19.5 42.796875 26.09375 38.90625 
Q 31.203125 41.90625 33.34375 45.25 
Q 35.5 48.59375 35.5 53.296875 
z
M 27.09375 27.203125 
L 21.203125 31.203125 
Q 16.796875 27.59375 15 24.140625 
Q 13.203125 20.703125 13.203125 15.796875 
Q 13.203125 9 16.640625 5.203125 
Q 20.09375 1.40625 25.90625 1.40625 
Q 30.796875 1.40625 33.84375 4.453125 
Q 36.90625 7.5 36.90625 12.40625 
Q 36.90625 16.90625 34.59375 20.296875 
Q 32.296875 23.703125 27.09375 27.203125 
z
" id="STIXGeneral-Regular-56"/>
      </defs>
      <g transform="translate(28.75 310.998844)scale(0.1 -0.1)">
       <use xlink:href="#STIXGeneral-Regular-8722"/>
       <use x="68.499985" xlink:href="#STIXGeneral-Regular-49"/>
       <use x="118.499969" xlink:href="#STIXGeneral-Regular-56"/>
       <use x="168.499954" xlink:href="#STIXGeneral-Regular-48"/>
      </g>
     </g>
    </g>
    <g id="ytick_6">
     <g id="line2d_26">
      <g>
       <use style="stroke:#000000;stroke-width:0.8;" x="57.6" xlink:href="#m69b192bb41" y="287.424"/>
      </g>
     </g>
     <g id="text_22">
      <!-- −135 -->
      <defs>
       <path d="M 6.09375 51 
L 4.5 51.40625 
Q 6.796875 58.90625 11.6875 63.25 
Q 16.59375 67.59375 24.09375 67.59375 
Q 31.09375 67.59375 35.390625 63.796875 
Q 39.703125 60 39.703125 53.90625 
Q 39.703125 45.703125 30.40625 40.09375 
Q 35.90625 37.703125 38.703125 34.796875 
Q 43.09375 29.90625 43.09375 21.90625 
Q 43.09375 13.90625 38.5 7.90625 
Q 35.09375 3.296875 28.75 0.9375 
Q 22.40625 -1.40625 15.296875 -1.40625 
Q 4.09375 -1.40625 4.09375 4.296875 
Q 4.09375 5.90625 5.296875 6.90625 
Q 6.5 7.90625 8.203125 7.90625 
Q 10.703125 7.90625 14.296875 5.296875 
Q 18.703125 2.203125 22.90625 2.203125 
Q 28.40625 2.203125 32.15625 6.640625 
Q 35.90625 11.09375 35.90625 17.5 
Q 35.90625 29 25.5 32 
Q 22.40625 33 15.296875 33 
L 15.296875 34.40625 
Q 20.90625 36.296875 23.703125 38 
Q 31.796875 42.59375 31.796875 51.40625 
Q 31.796875 56.40625 28.9375 59 
Q 26.09375 61.59375 21 61.59375 
Q 12 61.59375 6.09375 51 
z
" id="STIXGeneral-Regular-51"/>
      </defs>
      <g transform="translate(28.75 290.838844)scale(0.1 -0.1)">
       <use xlink:href="#STIXGeneral-Regular-8722"/>
       <use x="68.499985" xlink:href="#STIXGeneral-Regular-49"/>
       <use x="118.499969" xlink:href="#STIXGeneral-Regular-51"/>
       <use x="168.499954" xlink:href="#STIXGeneral-Regular-53"/>
      </g>
     </g>
    </g>
    <g id="ytick_7">
     <g id="line2d_27">
      <g>
       <use style="stroke:#000000;stroke-width:0.8;" x="57.6" xlink:href="#m69b192bb41" y="267.264"/>
      </g>
     </g>
     <g id="text_23">
      <!-- −90 -->
      <defs>
       <path d="M 5.90625 -2.203125 
L 5.59375 -0.203125 
Q 17.09375 1.796875 25.046875 9.5 
Q 33 17.203125 36 29.40625 
Q 30.203125 23.703125 21 23.703125 
Q 12.90625 23.703125 7.953125 29.296875 
Q 3 34.90625 3 44 
Q 3 54.09375 8.953125 60.84375 
Q 14.90625 67.59375 23.796875 67.59375 
Q 33.296875 67.59375 39.5 60 
Q 45.90625 52 45.90625 39.40625 
Q 45.90625 30.59375 42.84375 22.84375 
Q 39.796875 15.09375 33.90625 9.703125 
Q 27.703125 4.09375 21.796875 1.640625 
Q 15.90625 -0.796875 5.90625 -2.203125 
z
M 36.203125 35.5 
L 36.203125 39.40625 
Q 36.203125 64.796875 23 64.796875 
Q 18.296875 64.796875 15.703125 61.40625 
Q 14.203125 59.40625 13.203125 55.40625 
Q 12.203125 51.40625 12.203125 47.40625 
Q 12.203125 38.5 15.546875 33.25 
Q 18.90625 28 24.5 28 
Q 28.5 28 32.34375 29.953125 
Q 36.203125 31.90625 36.203125 35.5 
z
" id="STIXGeneral-Regular-57"/>
      </defs>
      <g transform="translate(33.75 270.678844)scale(0.1 -0.1)">
       <use xlink:href="#STIXGeneral-Regular-8722"/>
       <use x="68.499985" xlink:href="#STIXGeneral-Regular-57"/>
       <use x="118.499969" xlink:href="#STIXGeneral-Regular-48"/>
      </g>
     </g>
    </g>
    <g id="ytick_8">
     <g id="line2d_28">
      <g>
       <use style="stroke:#000000;stroke-width:0.8;" x="57.6" xlink:href="#m69b192bb41" y="247.104"/>
      </g>
     </g>
     <g id="text_24">
      <!-- −45 -->
      <g transform="translate(33.75 250.518844)scale(0.1 -0.1)">
       <use xlink:href="#STIXGeneral-Regular-8722"/>
       <use x="68.499985" xlink:href="#STIXGeneral-Regular-52"/>
       <use x="118.499969" xlink:href="#STIXGeneral-Regular-53"/>
      </g>
     </g>
    </g>
    <g id="ytick_9">
     <g id="line2d_29">
      <g>
       <use style="stroke:#000000;stroke-width:0.8;" x="57.6" xlink:href="#m69b192bb41" y="226.944"/>
      </g>
     </g>
     <g id="text_25">
      <!-- 0 -->
      <g transform="translate(45.6 230.358844)scale(0.1 -0.1)">
       <use xlink:href="#STIXGeneral-Regular-48"/>
      </g>
     </g>
    </g>
    <g id="ytick_10">
     <g id="line2d_30">
      <g>
       <use style="stroke:#000000;stroke-width:0.8;" x="57.6" xlink:href="#m69b192bb41" y="206.784"/>
      </g>
     </g>
     <g id="text_26">
      <!-- 45 -->
      <g transform="translate(40.6 210.198844)scale(0.1 -0.1)">
       <use xlink:href="#STIXGeneral-Regular-52"/>
       <use x="49.999985" xlink:href="#STIXGeneral-Regular-53"/>
      </g>
     </g>
    </g>
    <g id="ytick_11">
     <g id="line2d_31">
      <g>
       <use style="stroke:#000000;stroke-width:0.8;" x="57.6" xlink:href="#m69b192bb41" y="186.624"/>
      </g>
     </g>
     <g id="text_27">
      <!-- 90 -->
      <g transform="translate(40.6 190.038844)scale(0.1 -0.1)">
       <use xlink:href="#STIXGeneral-Regular-57"/>
       <use x="49.999985" xlink:href="#STIXGeneral-Regular-48"/>
      </g>
     </g>
    </g>
    <g id="text_28">
     <!-- Phase [°] -->
     <defs>
      <path d="M 1.59375 66.203125 
L 27.5 66.203125 
Q 41.703125 66.203125 49.203125 59.90625 
Q 54.203125 55.703125 54.203125 48 
Q 54.203125 40 48.5 34.90625 
Q 44.296875 31.09375 39.890625 29.9375 
Q 35.5 28.796875 27.09375 28.796875 
Q 24.203125 28.796875 20.203125 29.09375 
L 20.203125 11.203125 
Q 20.203125 5.5 21.84375 3.84375 
Q 23.5 2.203125 29.59375 1.90625 
L 29.59375 0 
L 1.59375 0 
L 1.59375 1.90625 
Q 7.40625 2.296875 8.703125 4 
Q 10 5.703125 10 12.203125 
L 10 55.09375 
Q 10 60.703125 8.546875 62.296875 
Q 7.09375 63.90625 1.59375 64.296875 
z
M 20.203125 58.90625 
L 20.203125 33.09375 
Q 23.59375 32.796875 26.296875 32.796875 
Q 34.40625 32.796875 38.84375 36.75 
Q 43.296875 40.703125 43.296875 47.5 
Q 43.296875 55.59375 38.6875 59.046875 
Q 34.09375 62.5 23.703125 62.5 
Q 21.59375 62.5 20.890625 61.75 
Q 20.203125 61 20.203125 58.90625 
z
" id="STIXGeneral-Regular-80"/>
      <path d="M 48.703125 0 
L 27.5 0 
L 27.5 1.5 
Q 31.90625 2 33.09375 3.5 
Q 34.296875 5 34.296875 10.203125 
L 34.296875 30 
Q 34.296875 40.59375 26.90625 40.59375 
Q 23.90625 40.59375 21.40625 39.1875 
Q 18.90625 37.796875 15.703125 34.296875 
L 15.703125 10.203125 
Q 15.703125 5 16.890625 3.5 
Q 18.09375 2 22.5 1.5 
L 22.5 0 
L 0.90625 0 
L 0.90625 1.5 
Q 5.203125 2.09375 6.25 3.5 
Q 7.296875 4.90625 7.296875 10.203125 
L 7.296875 57.296875 
Q 7.296875 60.5 6.34375 61.453125 
Q 5.40625 62.40625 2.203125 62.40625 
Q 1.296875 62.40625 1 62.296875 
L 1 63.90625 
L 3.703125 64.703125 
Q 11.40625 67 15.203125 68.296875 
L 15.703125 68 
L 15.703125 37.59375 
Q 19.203125 42.09375 22.59375 44.046875 
Q 26 46 30.40625 46 
Q 42.703125 46 42.703125 30.09375 
L 42.703125 10.203125 
Q 42.703125 5 43.640625 3.640625 
Q 44.59375 2.296875 48.703125 1.5 
z
" id="STIXGeneral-Regular-104"/>
      <path d="M 15.59375 30.09375 
L 26 23.796875 
Q 31 20.796875 32.890625 18.1875 
Q 34.796875 15.59375 34.796875 11.5 
Q 34.796875 6.5 30.640625 2.75 
Q 26.5 -1 20.796875 -1 
Q 16.09375 -1 13.5 -0.09375 
Q 10.796875 0.796875 8.90625 0.796875 
Q 7.203125 0.796875 6.5 -0.40625 
L 5.203125 -0.40625 
L 5.203125 15.296875 
L 6.796875 15.296875 
Q 8.40625 8 11.40625 4.59375 
Q 14.40625 1.203125 19.5 1.203125 
Q 23.203125 1.203125 25.5 3.296875 
Q 27.796875 5.40625 27.796875 8.59375 
Q 27.796875 13.203125 22.5 16.09375 
L 17.09375 19.09375 
Q 5.09375 25.796875 5.09375 33.59375 
Q 5.09375 39.40625 8.84375 42.65625 
Q 12.59375 45.90625 18.90625 45.90625 
Q 23.296875 45.90625 25.59375 44.796875 
Q 27.40625 44 28.40625 44 
Q 29.09375 44 30 45 
L 31.09375 45 
L 31.59375 31.40625 
L 30.09375 31.40625 
Q 28.40625 38.203125 25.84375 40.953125 
Q 23.296875 43.703125 18.796875 43.703125 
Q 15.40625 43.703125 13.34375 42 
Q 11.296875 40.296875 11.296875 36.90625 
Q 11.296875 35.203125 12.4375 33.25 
Q 13.59375 31.296875 15.59375 30.09375 
z
" id="STIXGeneral-Regular-115"/>
      <path d="M 34.296875 53.296875 
Q 34.296875 47.296875 30.140625 43.140625 
Q 26 39 20 39 
Q 13.90625 39 9.796875 43.140625 
Q 5.703125 47.296875 5.703125 53.40625 
Q 5.703125 59.40625 9.890625 63.5 
Q 14.09375 67.59375 20.203125 67.59375 
Q 26 67.59375 30.140625 63.390625 
Q 34.296875 59.203125 34.296875 53.296875 
z
M 30.40625 53.40625 
Q 30.40625 57.796875 27.25 61 
Q 24.09375 64.203125 19.796875 64.203125 
Q 15.703125 64.203125 12.640625 60.953125 
Q 9.59375 57.703125 9.59375 53.296875 
Q 9.59375 48.796875 12.640625 45.59375 
Q 15.703125 42.40625 20 42.40625 
Q 24.296875 42.40625 27.34375 45.65625 
Q 30.40625 48.90625 30.40625 53.40625 
z
" id="STIXGeneral-Regular-176"/>
     </defs>
     <g transform="translate(22.579687 265.354781)rotate(-90)scale(0.1 -0.1)">
      <use xlink:href="#STIXGeneral-Regular-80"/>
      <use x="55.699997" xlink:href="#STIXGeneral-Regular-104"/>
      <use x="105.699982" xlink:href="#STIXGeneral-Regular-97"/>
      <use x="150.099976" xlink:href="#STIXGeneral-Regular-115"/>
      <use x="188.999969" xlink:href="#STIXGeneral-Regular-101"/>
      <use x="233.399963" xlink:href="#STIXGeneral-Regular-32"/>
      <use x="258.399948" xlink:href="#STIXGeneral-Regular-91"/>
      <use x="291.699936" xlink:href="#STIXGeneral-Regular-176"/>
      <use x="331.699921" xlink:href="#STIXGeneral-Regular-93"/>
     </g>
    </g>
   </g>
   <g id="line2d_32">
    <path clip-path="url(#pf11292d274)" d="M 57.6 226.944 
L 129.006563 299.502281 
L 129.09375 218.950875 
L 129.180937 219.039469 
L 200.413125 291.420563 
L 200.500313 210.869156 
L 200.5875 210.95775 
L 271.819688 283.338844 
L 271.906875 202.787438 
L 271.994063 202.876031 
L 343.22625 275.257125 
L 343.313438 194.705719 
L 343.400625 194.794313 
L 414.632812 267.175406 
L 414.632812 267.175406 
" style="fill:none;stroke:#0000ff;stroke-linecap:square;stroke-width:1.5;"/>
   </g>
   <g id="line2d_33">
    <path clip-path="url(#pf11292d274)" d="M 57.6 226.944 
L 65.62125 232.467002 
L 70.155 235.307996 
L 74.165625 237.564202 
L 78.089062 239.514605 
L 81.925313 241.17634 
L 85.935937 242.668628 
L 90.120937 243.983262 
L 94.5675 245.141016 
L 99.275625 246.136113 
L 104.419688 246.995009 
L 110.086875 247.713397 
L 116.451563 248.289795 
L 123.600937 248.706607 
L 131.709375 248.949516 
L 140.95125 248.998871 
L 151.675313 248.8286 
L 164.230312 248.40141 
L 179.139375 247.665336 
L 197.1 246.548251 
L 218.984063 244.956489 
L 246.27375 242.739464 
L 281.14875 239.672679 
L 327.968438 235.31895 
L 401.205938 228.259021 
L 414.632812 226.952486 
L 414.632812 226.952486 
" style="fill:none;stroke:#008000;stroke-linecap:square;stroke-width:1.5;"/>
   </g>
   <g id="line2d_34">
    <path clip-path="url(#pf11292d274)" d="M 89.374414 307.584 
L 89.374414 186.624 
" style="fill:none;stroke:#ff0000;stroke-linecap:square;stroke-width:1.5;"/>
   </g>
   <g id="patch_9">
    <path d="M 57.6 307.584 
L 57.6 186.624 
" style="fill:none;stroke:#000000;stroke-linecap:square;stroke-linejoin:miter;stroke-width:0.8;"/>
   </g>
   <g id="patch_10">
    <path d="M 414.72 307.584 
L 414.72 186.624 
" style="fill:none;stroke:#000000;stroke-linecap:square;stroke-linejoin:miter;stroke-width:0.8;"/>
   </g>
   <g id="patch_11">
    <path d="M 57.6 307.584 
L 414.72 307.584 
" style="fill:none;stroke:#000000;stroke-linecap:square;stroke-linejoin:miter;stroke-width:0.8;"/>
   </g>
   <g id="patch_12">
    <path d="M 57.6 186.624 
L 414.72 186.624 
" style="fill:none;stroke:#000000;stroke-linecap:square;stroke-linejoin:miter;stroke-width:0.8;"/>
   </g>
  </g>
 </g>
 <defs>
  <clipPath id="p61b2de8bc8">
   <rect height="120.96" width="357.12" x="57.6" y="41.472"/>
  </clipPath>
  <clipPath id="pf11292d274">
   <rect height="120.96" width="357.12" x="57.6" y="186.624"/>
  </clipPath>
 </defs>
</svg>
